<svg id="search" width="16" height="16" viewBox="0 0 16 16" fill="currentColor" xmlns="http://www.w3.org/2000/svg">
<path fill-rule="evenodd" d="M2.66329 7.33C2.66329 4.75267 4.75263 2.66334 7.32996 2.66334C9.90729 2.66334 11.9966 4.75267 11.9966 7.33C11.9966 8.58728 11.4994 9.72842 10.6909 10.5675C10.6681 10.5851 10.6461 10.6043 10.6252 10.6253C10.6043 10.6462 10.585 10.6682 10.5675 10.691C9.72835 11.4995 8.58722 11.9967 7.32996 11.9967C4.75263 11.9967 2.66329 9.90733 2.66329 7.33ZM11.0751 12.0179C10.0486 12.839 8.74662 13.33 7.32996 13.33C4.01625 13.33 1.32996 10.6437 1.32996 7.33C1.32996 4.01629 4.01625 1.33 7.32996 1.33C10.6437 1.33 13.33 4.01629 13.33 7.33C13.33 8.74669 12.839 10.0487 12.0179 11.0751L14.468 13.5253C14.7284 13.7856 14.7284 14.2077 14.468 14.4681C14.2077 14.7284 13.7855 14.7284 13.5252 14.4681L11.0751 12.0179Z"/>
</svg>
